<svg width="100" height="100" viewBox="0 0 100 100" fill="none" xmlns="http://www.w3.org/2000/svg">
<rect width="100" height="100" rx="25" fill="#0080FF"/>
<path d="M63.0725 60.3375C61.5699 65.0079 57.563 67.989 51.4525 67.989C42.6373 67.989 37.228 60.9338 37.228 50.5C37.228 40.3644 42.3368 33.011 51.2522 33.011C57.0622 33.011 60.3679 35.7934 62.0708 40.4637H78.4991C76.1952 28.0426 67.0794 19 51.2522 19C33.6218 19 21 31.918 21 50.5C21 69.082 33.6218 82 51.4525 82C67.7807 82 79 71.3675 79 54.4748V48.4133H53.5561V60.3375H63.0725Z" fill="white"/>
</svg>